<svg width="269" height="267" viewBox="0 0 269 267" fill="none" xmlns="http://www.w3.org/2000/svg">
<path d="M94.6831 203.964C64.2229 196.709 38.1969 181.171 21.3625 160.19C4.52801 139.208 -1.99053 114.185 2.99834 89.6945C7.98721 65.2038 24.1503 42.8812 48.5331 26.8069C72.916 10.7327 103.89 1.98044 135.794 2.15005C167.697 2.31965 198.399 11.3998 222.288 27.7306C246.177 44.0615 261.657 66.5523 265.898 91.0921C270.139 115.632 262.859 140.582 245.387 161.381C227.916 182.18 201.42 197.439 170.744 204.369L149.868 147.752C163.01 144.783 174.361 138.246 181.846 129.336C189.331 120.425 192.45 109.736 190.633 99.223C188.816 88.7097 182.184 79.0743 171.95 72.0779C161.716 65.0815 148.562 61.1915 134.894 61.1188C121.226 61.0462 107.957 64.7958 97.5108 71.6822C87.0648 78.5687 80.1403 88.132 78.003 98.6242C75.8657 109.116 78.6583 119.837 85.8704 128.825C93.0826 137.814 104.232 144.471 117.282 147.579L94.6831 203.964Z" fill="url(#paint0_linear_10_159)"/>
<path d="M60.7907 132.153C58.9777 130.782 56.4583 130.796 54.7314 132.274C51.2927 135.217 48.1409 138.351 45.3015 141.649C43.2083 144.081 44.2049 147.765 47.148 149.042L93.229 169.041C98.657 171.397 102.955 164.035 98.2353 160.467L60.7907 132.153Z" fill="#E0D1BD"/>
<path d="M219.559 153.112C222.519 152.016 223.738 148.478 221.868 145.935C219.363 142.527 216.533 139.265 213.403 136.178C211.78 134.577 209.257 134.399 207.354 135.655L167.877 161.731C162.917 165.007 166.796 172.657 172.37 170.592L219.559 153.112Z" fill="#E0D1BD"/>
<defs>
<linearGradient id="paint0_linear_10_159" x1="133.213" y1="2.1558" x2="135.228" y2="208.479" gradientUnits="userSpaceOnUse">
<stop stop-color="#51F37F"/>
<stop offset="0.5" stop-color="#135124" stop-opacity="0.71"/>
<stop offset="1" stop-color="#04D53F" stop-opacity="0.6"/>
</linearGradient>
</defs>
</svg>
