<svg width="300" height="249" viewBox="0 0 300 249" fill="none" xmlns="http://www.w3.org/2000/svg">
<mask id="mask0_55_1089" style="mask-type:luminance" maskUnits="userSpaceOnUse" x="100" y="32" width="90" height="121">
<path d="M100.352 32H189.352V152.411H100.352V32Z" fill="white"/>
</mask>
<g mask="url(#mask0_55_1089)">
<path d="M176.925 36.6041H168.909C168.909 31.4635 160.889 31.4531 160.889 36.6041H148.862C148.862 31.4635 140.847 31.4531 140.847 36.6041H128.821C128.821 31.4635 120.8 31.4531 120.8 36.6041H112.784C106.154 36.6041 100.758 41.9739 100.758 48.5833V140.432C100.758 147.036 106.154 152.411 112.784 152.411H176.925C183.555 152.411 188.951 147.036 188.951 140.432V48.5833C188.951 41.9739 183.555 36.6041 176.925 36.6041ZM180.935 140.432C180.935 142.63 179.133 144.422 176.925 144.422H112.784C110.576 144.422 108.774 142.63 108.774 140.432V64.5573H180.935V140.432ZM180.935 56.5677H108.774V48.5833C108.774 46.3802 110.576 44.5885 112.784 44.5885H120.8C120.8 49.7291 128.821 49.7343 128.821 44.5885H140.847C140.847 49.7291 148.862 49.7343 148.862 44.5885H160.889C160.889 49.7291 168.909 49.7343 168.909 44.5885H176.925C179.133 44.5885 180.935 46.3802 180.935 48.5833V56.5677ZM120.8 80.5312H168.909C174.076 80.5312 174.066 88.5156 168.909 88.5156H120.8C115.633 88.5156 115.644 80.5312 120.8 80.5312ZM120.8 100.495H168.909C174.076 100.495 174.066 108.484 168.909 108.484H120.8C115.633 108.484 115.644 100.495 120.8 100.495ZM120.8 120.464H168.909C174.076 120.464 174.066 128.448 168.909 128.448H120.8C115.633 128.448 115.644 120.464 120.8 120.464Z" fill="black"/>
</g>
<path d="M72.75 162.872L66.875 183.58H62.2083L56.25 162.684L56.4792 183.58H50V156.018H59.0417L64.5208 174.163H64.6042L70 156.018H79.0833V183.58H72.6042L72.8333 162.934L72.75 162.872Z" fill="black"/>
<path d="M80.8745 162.913H87.4578L91.6037 174.893H91.6662L95.6245 162.913H102.187L91.812 190.476H85.2703L88.5412 182.538L80.8745 162.913Z" fill="black"/>
<path d="M113.278 156.018C116.08 156.018 118.278 156.367 119.861 157.059C121.361 157.757 122.538 158.846 123.403 160.33C124.278 161.804 124.715 163.471 124.715 165.33C124.715 168.288 123.809 170.632 122.007 172.351C120.2 174.075 117.528 174.934 113.986 174.934H110.694V183.58H103.965V156.018H113.278ZM117.965 165.434C117.965 164.325 117.601 163.512 116.882 162.997C116.158 162.471 115.017 162.205 113.465 162.205H110.694V168.747H113.715C115.158 168.747 116.226 168.492 116.924 167.976C117.616 167.45 117.965 166.601 117.965 165.434Z" fill="black"/>
<path d="M132.824 156.018V183.58H126.636V156.018H132.824Z" fill="black"/>
<path d="M152.001 181.351C151.553 182.242 150.772 182.955 149.647 183.497C148.532 184.023 147.298 184.288 145.939 184.288C143.949 184.288 142.168 183.809 140.584 182.851C139.012 181.882 137.782 180.549 136.897 178.851C136.022 177.158 135.584 175.283 135.584 173.226C135.584 171.215 136.032 169.367 136.939 167.684C137.84 165.992 139.074 164.658 140.647 163.684C142.23 162.7 143.991 162.205 145.939 162.205C147.23 162.205 148.418 162.465 149.501 162.976C150.595 163.476 151.428 164.184 152.001 165.101H152.084V162.913H158.272V183.58H152.084V181.351H152.001ZM152.084 173.226C152.084 172.283 151.845 171.408 151.376 170.601C150.902 169.799 150.262 169.158 149.459 168.684C148.652 168.215 147.777 167.976 146.834 167.976C145.918 167.976 145.064 168.215 144.272 168.684C143.491 169.158 142.881 169.804 142.439 170.622C141.991 171.445 141.772 172.34 141.772 173.309C141.772 174.242 142.001 175.111 142.459 175.913C142.918 176.705 143.532 177.34 144.314 177.809C145.09 178.283 145.949 178.518 146.897 178.518C147.84 178.518 148.709 178.283 149.501 177.809C150.303 177.34 150.939 176.7 151.397 175.893C151.855 175.09 152.084 174.2 152.084 173.226Z" fill="black"/>
<path d="M171.747 168.018C170.507 168.018 169.606 168.361 169.038 169.038C168.481 169.721 168.205 170.768 168.205 172.184V183.58H162.018V162.913H167.788V165.101H167.872C168.507 164.059 169.278 163.32 170.184 162.872C171.101 162.429 172.205 162.205 173.497 162.205C174.84 162.205 176.09 162.476 177.247 163.018C178.398 163.559 179.335 164.445 180.059 165.663C180.794 166.887 181.163 168.465 181.163 170.393V183.58H174.997V172.101C174.997 170.684 174.731 169.653 174.205 168.997C173.674 168.346 172.856 168.018 171.747 168.018Z" fill="black"/>
<path d="M194.539 168.018C193.3 168.018 192.399 168.361 191.831 169.038C191.274 169.721 190.998 170.768 190.998 172.184V183.58H184.81V162.913H190.581V165.101H190.664C191.3 164.059 192.07 163.32 192.977 162.872C193.893 162.429 194.998 162.205 196.289 162.205C197.633 162.205 198.883 162.476 200.039 163.018C201.19 163.559 202.128 164.445 202.852 165.663C203.586 166.887 203.956 168.465 203.956 170.393V183.58H197.789V172.101C197.789 170.684 197.524 169.653 196.998 168.997C196.466 168.346 195.649 168.018 194.539 168.018Z" fill="black"/>
<path d="M217.437 179.038C218.254 179.038 218.957 178.887 219.541 178.58C220.124 178.262 220.676 177.768 221.207 177.101H227.541C226.541 179.367 225.15 181.122 223.374 182.372C221.608 183.622 219.629 184.247 217.437 184.247C215.478 184.247 213.655 183.768 211.978 182.809C210.312 181.84 208.978 180.512 207.978 178.83C206.989 177.153 206.499 175.309 206.499 173.309C206.499 171.34 206.978 169.507 207.937 167.809C208.905 166.101 210.218 164.742 211.874 163.726C213.525 162.715 215.343 162.205 217.332 162.205C219.374 162.205 221.218 162.705 222.874 163.705C224.541 164.695 225.853 166.038 226.812 167.747C227.77 169.455 228.249 171.367 228.249 173.476C228.249 174.075 228.197 174.622 228.103 175.122H212.603C212.77 176.288 213.296 177.236 214.187 177.955C215.088 178.679 216.171 179.038 217.437 179.038ZM217.332 167.413C216.192 167.413 215.192 167.736 214.332 168.372C213.468 168.997 212.916 169.861 212.666 170.955H222.062C221.812 169.887 221.254 169.033 220.395 168.393C219.546 167.742 218.525 167.413 217.332 167.413Z" fill="black"/>
<path d="M236.688 162.913V165.101H236.772C237.298 164.033 237.98 163.283 238.813 162.851C239.657 162.424 240.709 162.205 241.959 162.205V168.413C240.194 168.445 238.938 168.768 238.188 169.393C237.438 170.007 237.063 170.934 237.063 172.184V183.58H230.876V162.913H236.688Z" fill="black"/>
<path d="M71.3208 196.281H218.394C219.701 196.281 220.951 196.802 221.873 197.724C222.8 198.651 223.316 199.901 223.316 201.208V211.057C223.316 212.365 222.8 213.62 221.873 214.542C220.951 215.469 219.701 215.984 218.394 215.984H71.3208C68.6021 215.984 66.3989 213.781 66.3989 211.057V201.208C66.3989 198.49 68.6021 196.281 71.3208 196.281Z" fill="#5383FF"/>
<path d="M74.3413 202.545H77.3621C77.8049 202.545 78.2007 202.608 78.5496 202.733C78.8934 202.858 79.1851 203.04 79.4246 203.274C79.6746 203.498 79.8621 203.769 79.9871 204.087C80.1226 204.394 80.1955 204.733 80.1955 205.108V205.128C80.1955 205.561 80.1174 205.941 79.9663 206.274C79.8101 206.597 79.5965 206.868 79.3205 207.087C79.0549 207.311 78.7371 207.477 78.3621 207.587C77.9976 207.686 77.6121 207.733 77.1955 207.733H75.9663V209.962H74.3413V202.545ZM77.258 206.295C77.659 206.295 77.9715 206.191 78.1955 205.983C78.4299 205.764 78.5496 205.493 78.5496 205.17V205.149C78.5496 204.774 78.4299 204.498 78.1955 204.316C77.9559 204.123 77.633 204.024 77.2163 204.024H75.9663V206.295H77.258Z" fill="black"/>
<path d="M81.6235 202.545H83.2485V208.483H86.936V209.962H81.6235V202.545Z" fill="black"/>
<path d="M90.9282 202.504H92.4282L95.5949 209.962H93.8866L93.2199 208.295H90.0741L89.4074 209.962H87.7407L90.9282 202.504ZM92.6366 206.858L91.6574 204.462L90.6574 206.858H92.6366Z" fill="black"/>
<path d="M96.9595 202.545H98.4595L101.918 207.108V202.545H103.543V209.962H102.147L98.5636 205.253V209.962H96.9595V202.545Z" fill="black"/>
<path d="M111.002 207.045L108.148 202.545H110.065L111.815 205.524L113.627 202.545H115.481L112.627 207.003V209.962H111.002V207.045Z" fill="black"/>
<path d="M120.292 210.087C119.719 210.087 119.193 209.988 118.709 209.795C118.235 209.587 117.823 209.316 117.48 208.983C117.131 208.639 116.86 208.233 116.667 207.774C116.469 207.306 116.375 206.806 116.375 206.274V206.253C116.375 205.727 116.469 205.233 116.667 204.774C116.86 204.316 117.131 203.915 117.48 203.566C117.839 203.207 118.256 202.931 118.73 202.733C119.214 202.524 119.74 202.42 120.313 202.42C120.896 202.42 121.422 202.524 121.896 202.733C122.381 202.931 122.797 203.201 123.146 203.545C123.49 203.894 123.761 204.295 123.959 204.753C124.152 205.212 124.25 205.707 124.25 206.233V206.253C124.25 206.785 124.146 207.285 123.938 207.753C123.74 208.212 123.469 208.618 123.125 208.962C122.777 209.311 122.36 209.587 121.875 209.795C121.402 209.988 120.875 210.087 120.292 210.087ZM120.313 208.587C120.646 208.587 120.943 208.535 121.209 208.42C121.485 208.295 121.719 208.128 121.917 207.92C122.11 207.701 122.261 207.451 122.375 207.17C122.485 206.894 122.542 206.597 122.542 206.274V206.253C122.542 205.936 122.485 205.639 122.375 205.358C122.261 205.082 122.105 204.837 121.896 204.628C121.698 204.41 121.464 204.233 121.188 204.108C120.922 203.983 120.625 203.92 120.292 203.92C119.969 203.92 119.672 203.983 119.396 204.108C119.115 204.233 118.881 204.399 118.688 204.608C118.49 204.816 118.339 205.061 118.23 205.337C118.131 205.618 118.084 205.915 118.084 206.233V206.253C118.084 206.576 118.131 206.878 118.23 207.17C118.339 207.451 118.49 207.691 118.688 207.899C118.896 208.108 119.136 208.274 119.417 208.399C119.693 208.524 119.99 208.587 120.313 208.587Z" fill="black"/>
<path d="M129 210.087C128 210.087 127.213 209.811 126.646 209.253C126.073 208.701 125.792 207.878 125.792 206.795V202.545H127.417V206.753C127.417 207.352 127.552 207.806 127.833 208.108C128.125 208.415 128.521 208.566 129.021 208.566C129.521 208.566 129.906 208.42 130.187 208.128C130.479 207.837 130.625 207.394 130.625 206.795V202.545H132.25V206.733C132.25 207.306 132.172 207.795 132.021 208.212C131.864 208.628 131.646 208.977 131.354 209.253C131.073 209.535 130.734 209.743 130.333 209.878C129.943 210.014 129.5 210.087 129 210.087Z" fill="black"/>
<path d="M134.13 202.545H137.505C138.448 202.545 139.172 202.795 139.672 203.295C140.088 203.727 140.297 204.295 140.297 205.003V205.024C140.297 205.623 140.151 206.108 139.859 206.483C139.567 206.858 139.182 207.139 138.713 207.316L140.526 209.962H138.63L137.026 207.587H135.755V209.962H134.13V202.545ZM137.401 206.149C137.802 206.149 138.109 206.061 138.317 205.878C138.536 205.686 138.651 205.431 138.651 205.108V205.087C138.651 204.727 138.536 204.462 138.317 204.295C138.093 204.118 137.781 204.024 137.38 204.024H135.755V206.149H137.401Z" fill="black"/>
<path d="M144.797 202.545H146.547L148.089 207.566L149.735 202.524H151.152L152.797 207.566L154.339 202.545H156.047L153.506 210.024H152.089L150.422 205.17L148.756 210.024H147.339L144.797 202.545Z" fill="black"/>
<path d="M157.467 202.545H159.092V205.483H162.092V202.545H163.717V209.962H162.092V206.983H159.092V209.962H157.467V202.545Z" fill="black"/>
<path d="M169.306 210.087C168.733 210.087 168.207 209.988 167.722 209.795C167.249 209.587 166.837 209.316 166.493 208.983C166.144 208.639 165.874 208.233 165.681 207.774C165.483 207.306 165.389 206.806 165.389 206.274V206.253C165.389 205.727 165.483 205.233 165.681 204.774C165.874 204.316 166.144 203.915 166.493 203.566C166.853 203.207 167.269 202.931 167.743 202.733C168.228 202.524 168.754 202.42 169.327 202.42C169.91 202.42 170.436 202.524 170.91 202.733C171.394 202.931 171.811 203.201 172.16 203.545C172.504 203.894 172.775 204.295 172.972 204.753C173.165 205.212 173.264 205.707 173.264 206.233V206.253C173.264 206.785 173.16 207.285 172.952 207.753C172.754 208.212 172.483 208.618 172.139 208.962C171.79 209.311 171.374 209.587 170.889 209.795C170.415 209.988 169.889 210.087 169.306 210.087ZM169.327 208.587C169.66 208.587 169.957 208.535 170.222 208.42C170.499 208.295 170.733 208.128 170.931 207.92C171.124 207.701 171.275 207.451 171.389 207.17C171.499 206.894 171.556 206.597 171.556 206.274V206.253C171.556 205.936 171.499 205.639 171.389 205.358C171.275 205.082 171.118 204.837 170.91 204.628C170.712 204.41 170.478 204.233 170.202 204.108C169.936 203.983 169.639 203.92 169.306 203.92C168.983 203.92 168.686 203.983 168.41 204.108C168.129 204.233 167.894 204.399 167.702 204.608C167.504 204.816 167.353 205.061 167.243 205.337C167.144 205.618 167.097 205.915 167.097 206.233V206.253C167.097 206.576 167.144 206.878 167.243 207.17C167.353 207.451 167.504 207.691 167.702 207.899C167.91 208.108 168.15 208.274 168.431 208.399C168.707 208.524 169.004 208.587 169.327 208.587Z" fill="black"/>
<path d="M174.931 202.545H176.556V208.483H180.243V209.962H174.931V202.545Z" fill="black"/>
<path d="M181.694 202.545H187.277V204.003H183.298V205.503H186.798V206.962H183.298V208.503H187.319V209.962H181.694V202.545Z" fill="black"/>
<path d="M192.383 202.545H194.008V208.483H197.696V209.962H192.383V202.545Z" fill="black"/>
<path d="M199.209 202.545H200.834V209.962H199.209V202.545Z" fill="black"/>
<path d="M202.915 202.545H208.54V204.045H204.54V205.608H208.081V207.087H204.54V209.962H202.915V202.545Z" fill="black"/>
<path d="M210.069 202.545H215.652V204.003H211.673V205.503H215.173V206.962H211.673V208.503H215.694V209.962H210.069V202.545Z" fill="black"/>
</svg>
