<svg xmlns="http://www.w3.org/2000/svg" xmlns:xlink="http://www.w3.org/1999/xlink" width="500" zoomAndPan="magnify" viewBox="0 0 375 374.999991" height="500" preserveAspectRatio="xMidYMid meet" version="1.0"><defs><g/><clipPath id="1723c170e2"><path d="M 154.121094 120 L 220.871094 120 L 220.871094 210.308594 L 154.121094 210.308594 Z M 154.121094 120 " clip-rule="nonzero"/></clipPath></defs><g clip-path="url(#1723c170e2)"><path fill="#000000" d="M 211.550781 123.453125 L 205.539062 123.453125 C 205.539062 119.597656 199.523438 119.589844 199.523438 123.453125 L 190.503906 123.453125 C 190.503906 119.597656 184.492188 119.589844 184.492188 123.453125 L 175.472656 123.453125 C 175.472656 119.597656 169.457031 119.589844 169.457031 123.453125 L 163.445312 123.453125 C 158.472656 123.453125 154.425781 127.480469 154.425781 132.4375 L 154.425781 201.324219 C 154.425781 206.277344 158.472656 210.308594 163.445312 210.308594 L 211.550781 210.308594 C 216.523438 210.308594 220.570312 206.277344 220.570312 201.324219 L 220.570312 132.4375 C 220.570312 127.480469 216.523438 123.453125 211.550781 123.453125 Z M 214.558594 201.324219 C 214.558594 202.972656 213.207031 204.316406 211.550781 204.316406 L 163.445312 204.316406 C 161.789062 204.316406 160.4375 202.972656 160.4375 201.324219 L 160.4375 144.417969 L 214.558594 144.417969 Z M 214.558594 138.425781 L 160.4375 138.425781 L 160.4375 132.4375 C 160.4375 130.785156 161.789062 129.441406 163.445312 129.441406 L 169.457031 129.441406 C 169.457031 133.296875 175.472656 133.300781 175.472656 129.441406 L 184.492188 129.441406 C 184.492188 133.296875 190.503906 133.300781 190.503906 129.441406 L 199.523438 129.441406 C 199.523438 133.296875 205.539062 133.300781 205.539062 129.441406 L 211.550781 129.441406 C 213.207031 129.441406 214.558594 130.785156 214.558594 132.4375 Z M 169.457031 156.398438 L 205.539062 156.398438 C 209.414062 156.398438 209.40625 162.386719 205.539062 162.386719 L 169.457031 162.386719 C 165.582031 162.386719 165.589844 156.398438 169.457031 156.398438 Z M 169.457031 171.371094 L 205.539062 171.371094 C 209.414062 171.371094 209.40625 177.363281 205.539062 177.363281 L 169.457031 177.363281 C 165.582031 177.363281 165.589844 171.371094 169.457031 171.371094 Z M 169.457031 186.347656 L 205.539062 186.347656 C 209.414062 186.347656 209.40625 192.335938 205.539062 192.335938 L 169.457031 192.335938 C 165.582031 192.335938 165.589844 186.347656 169.457031 186.347656 Z M 169.457031 186.347656 " fill-opacity="1" fill-rule="nonzero"/></g><g fill="#000000" fill-opacity="1"><g transform="translate(114.482232, 233.68509)"><g><path d="M 18.9375 -15.53125 L 14.53125 0 L 11.03125 0 L 6.5625 -15.671875 L 6.734375 0 L 1.875 0 L 1.875 -20.671875 L 8.65625 -20.671875 L 12.765625 -7.0625 L 12.828125 -7.0625 L 16.875 -20.671875 L 23.6875 -20.671875 L 23.6875 0 L 18.828125 0 L 19 -15.484375 Z M 18.9375 -15.53125 "/></g></g></g><g fill="#000000" fill-opacity="1"><g transform="translate(139.481838, 233.68509)"><g><path d="M 0.03125 -15.5 L 4.96875 -15.5 L 8.078125 -6.515625 L 8.125 -6.515625 L 11.09375 -15.5 L 16.015625 -15.5 L 8.234375 5.171875 L 3.328125 5.171875 L 5.78125 -0.78125 Z M 0.03125 -15.5 "/></g></g></g><g fill="#000000" fill-opacity="1"><g transform="translate(154.956402, 233.68509)"><g><path d="M 8.859375 -20.671875 C 10.960938 -20.671875 12.609375 -20.410156 13.796875 -19.890625 C 14.921875 -19.367188 15.804688 -18.550781 16.453125 -17.4375 C 17.109375 -16.332031 17.4375 -15.082031 17.4375 -13.6875 C 17.4375 -11.46875 16.757812 -9.710938 15.40625 -8.421875 C 14.050781 -7.128906 12.046875 -6.484375 9.390625 -6.484375 L 6.921875 -6.484375 L 6.921875 0 L 1.875 0 L 1.875 -20.671875 Z M 12.375 -13.609375 C 12.375 -14.441406 12.101562 -15.050781 11.5625 -15.4375 C 11.019531 -15.832031 10.164062 -16.03125 9 -16.03125 L 6.921875 -16.03125 L 6.921875 -11.125 L 9.1875 -11.125 C 10.269531 -11.125 11.070312 -11.316406 11.59375 -11.703125 C 12.113281 -12.097656 12.375 -12.734375 12.375 -13.609375 Z M 12.375 -13.609375 "/></g></g></g><g fill="#000000" fill-opacity="1"><g transform="translate(172.162787, 233.68509)"><g><path d="M 6.3125 -20.671875 L 6.3125 0 L 1.671875 0 L 1.671875 -20.671875 Z M 6.3125 -20.671875 "/></g></g></g><g fill="#000000" fill-opacity="1"><g transform="translate(179.592744, 233.68509)"><g><path d="M 13.265625 -1.671875 C 12.929688 -1.003906 12.34375 -0.46875 11.5 -0.0625 C 10.664062 0.332031 9.738281 0.53125 8.71875 0.53125 C 7.226562 0.53125 5.890625 0.171875 4.703125 -0.546875 C 3.523438 -1.273438 2.601562 -2.273438 1.9375 -3.546875 C 1.28125 -4.816406 0.953125 -6.222656 0.953125 -7.765625 C 0.953125 -9.273438 1.289062 -10.660156 1.96875 -11.921875 C 2.644531 -13.191406 3.570312 -14.191406 4.75 -14.921875 C 5.9375 -15.660156 7.257812 -16.03125 8.71875 -16.03125 C 9.6875 -16.03125 10.578125 -15.835938 11.390625 -15.453125 C 12.210938 -15.078125 12.835938 -14.546875 13.265625 -13.859375 L 13.328125 -13.859375 L 13.328125 -15.5 L 17.96875 -15.5 L 17.96875 0 L 13.328125 0 L 13.328125 -1.671875 Z M 13.328125 -7.765625 C 13.328125 -8.472656 13.148438 -9.128906 12.796875 -9.734375 C 12.441406 -10.335938 11.960938 -10.816406 11.359375 -11.171875 C 10.753906 -11.523438 10.097656 -11.703125 9.390625 -11.703125 C 8.703125 -11.703125 8.0625 -11.523438 7.46875 -11.171875 C 6.882812 -10.816406 6.425781 -10.332031 6.09375 -9.71875 C 5.757812 -9.101562 5.59375 -8.429688 5.59375 -7.703125 C 5.59375 -7.003906 5.765625 -6.351562 6.109375 -5.75 C 6.453125 -5.15625 6.914062 -4.679688 7.5 -4.328125 C 8.082031 -3.972656 8.726562 -3.796875 9.4375 -3.796875 C 10.144531 -3.796875 10.796875 -3.972656 11.390625 -4.328125 C 11.992188 -4.679688 12.46875 -5.160156 12.8125 -5.765625 C 13.15625 -6.367188 13.328125 -7.035156 13.328125 -7.765625 Z M 13.328125 -7.765625 "/></g></g></g><g fill="#000000" fill-opacity="1"><g transform="translate(198.698557, 233.68509)"><g><path d="M 8.96875 -11.671875 C 8.039062 -11.671875 7.363281 -11.414062 6.9375 -10.90625 C 6.519531 -10.394531 6.3125 -9.609375 6.3125 -8.546875 L 6.3125 0 L 1.671875 0 L 1.671875 -15.5 L 6 -15.5 L 6 -13.859375 L 6.0625 -13.859375 C 6.539062 -14.640625 7.117188 -15.195312 7.796875 -15.53125 C 8.484375 -15.863281 9.3125 -16.03125 10.28125 -16.03125 C 11.289062 -16.03125 12.226562 -15.828125 13.09375 -15.421875 C 13.957031 -15.015625 14.660156 -14.351562 15.203125 -13.4375 C 15.753906 -12.519531 16.03125 -11.335938 16.03125 -9.890625 L 16.03125 0 L 11.40625 0 L 11.40625 -8.609375 C 11.40625 -9.671875 11.207031 -10.445312 10.8125 -10.9375 C 10.414062 -11.425781 9.800781 -11.671875 8.96875 -11.671875 Z M 8.96875 -11.671875 "/></g></g></g><g fill="#000000" fill-opacity="1"><g transform="translate(215.79322, 233.68509)"><g><path d="M 8.96875 -11.671875 C 8.039062 -11.671875 7.363281 -11.414062 6.9375 -10.90625 C 6.519531 -10.394531 6.3125 -9.609375 6.3125 -8.546875 L 6.3125 0 L 1.671875 0 L 1.671875 -15.5 L 6 -15.5 L 6 -13.859375 L 6.0625 -13.859375 C 6.539062 -14.640625 7.117188 -15.195312 7.796875 -15.53125 C 8.484375 -15.863281 9.3125 -16.03125 10.28125 -16.03125 C 11.289062 -16.03125 12.226562 -15.828125 13.09375 -15.421875 C 13.957031 -15.015625 14.660156 -14.351562 15.203125 -13.4375 C 15.753906 -12.519531 16.03125 -11.335938 16.03125 -9.890625 L 16.03125 0 L 11.40625 0 L 11.40625 -8.609375 C 11.40625 -9.671875 11.207031 -10.445312 10.8125 -10.9375 C 10.414062 -11.425781 9.800781 -11.671875 8.96875 -11.671875 Z M 8.96875 -11.671875 "/></g></g></g><g fill="#000000" fill-opacity="1"><g transform="translate(232.887882, 233.68509)"><g><path d="M 9.046875 -3.40625 C 9.660156 -3.40625 10.1875 -3.519531 10.625 -3.75 C 11.0625 -3.988281 11.476562 -4.359375 11.875 -4.859375 L 16.625 -4.859375 C 15.875 -3.160156 14.832031 -1.84375 13.5 -0.90625 C 12.175781 0.03125 10.691406 0.5 9.046875 0.5 C 7.578125 0.5 6.210938 0.140625 4.953125 -0.578125 C 3.703125 -1.304688 2.703125 -2.300781 1.953125 -3.5625 C 1.210938 -4.820312 0.84375 -6.203125 0.84375 -7.703125 C 0.84375 -9.179688 1.203125 -10.554688 1.921875 -11.828125 C 2.648438 -13.109375 3.632812 -14.128906 4.875 -14.890625 C 6.113281 -15.648438 7.476562 -16.03125 8.96875 -16.03125 C 10.5 -16.03125 11.882812 -15.65625 13.125 -14.90625 C 14.375 -14.164062 15.359375 -13.15625 16.078125 -11.875 C 16.796875 -10.59375 17.15625 -9.160156 17.15625 -7.578125 C 17.15625 -7.128906 17.117188 -6.71875 17.046875 -6.34375 L 5.421875 -6.34375 C 5.546875 -5.46875 5.941406 -4.757812 6.609375 -4.21875 C 7.285156 -3.675781 8.097656 -3.40625 9.046875 -3.40625 Z M 8.96875 -12.125 C 8.113281 -12.125 7.363281 -11.882812 6.71875 -11.40625 C 6.070312 -10.9375 5.65625 -10.289062 5.46875 -9.46875 L 12.515625 -9.46875 C 12.328125 -10.269531 11.910156 -10.910156 11.265625 -11.390625 C 10.628906 -11.878906 9.863281 -12.125 8.96875 -12.125 Z M 8.96875 -12.125 "/></g></g></g><g fill="#000000" fill-opacity="1"><g transform="translate(250.373591, 233.68509)"><g><path d="M 6 -15.5 L 6 -13.859375 L 6.0625 -13.859375 C 6.457031 -14.660156 6.96875 -15.222656 7.59375 -15.546875 C 8.226562 -15.867188 9.015625 -16.03125 9.953125 -16.03125 L 9.953125 -11.375 C 8.628906 -11.351562 7.6875 -11.109375 7.125 -10.640625 C 6.5625 -10.179688 6.28125 -9.484375 6.28125 -8.546875 L 6.28125 0 L 1.640625 0 L 1.640625 -15.5 Z M 6 -15.5 "/></g></g></g><path fill="#5383ff" d="M 132.347656 243.210938 L 242.652344 243.210938 C 243.632812 243.210938 244.570312 243.601562 245.261719 244.292969 C 245.957031 244.988281 246.34375 245.925781 246.34375 246.90625 L 246.34375 254.292969 C 246.34375 255.273438 245.957031 256.214844 245.261719 256.90625 C 244.570312 257.601562 243.632812 257.988281 242.652344 257.988281 L 132.347656 257.988281 C 130.308594 257.988281 128.65625 256.335938 128.65625 254.292969 L 128.65625 246.90625 C 128.65625 244.867188 130.308594 243.210938 132.347656 243.210938 Z M 132.347656 243.210938 " fill-opacity="1" fill-rule="nonzero"/><g fill="#000000" fill-opacity="1"><g transform="translate(133.941655, 253.471393)"><g><path d="M 0.671875 -5.5625 L 2.9375 -5.5625 C 3.269531 -5.5625 3.566406 -5.515625 3.828125 -5.421875 C 4.085938 -5.328125 4.304688 -5.191406 4.484375 -5.015625 C 4.671875 -4.847656 4.8125 -4.644531 4.90625 -4.40625 C 5.007812 -4.175781 5.0625 -3.921875 5.0625 -3.640625 L 5.0625 -3.625 C 5.0625 -3.300781 5.003906 -3.015625 4.890625 -2.765625 C 4.773438 -2.523438 4.613281 -2.320312 4.40625 -2.15625 C 4.207031 -1.988281 3.96875 -1.863281 3.6875 -1.78125 C 3.414062 -1.707031 3.125 -1.671875 2.8125 -1.671875 L 1.890625 -1.671875 L 1.890625 0 L 0.671875 0 Z M 2.859375 -2.75 C 3.160156 -2.75 3.394531 -2.828125 3.5625 -2.984375 C 3.738281 -3.148438 3.828125 -3.351562 3.828125 -3.59375 L 3.828125 -3.609375 C 3.828125 -3.890625 3.738281 -4.097656 3.5625 -4.234375 C 3.382812 -4.378906 3.140625 -4.453125 2.828125 -4.453125 L 1.890625 -4.453125 L 1.890625 -2.75 Z M 2.859375 -2.75 "/></g></g></g><g fill="#000000" fill-opacity="1"><g transform="translate(139.402927, 253.471393)"><g><path d="M 0.671875 -5.5625 L 1.890625 -5.5625 L 1.890625 -1.109375 L 4.65625 -1.109375 L 4.65625 0 L 0.671875 0 Z M 0.671875 -5.5625 "/></g></g></g><g fill="#000000" fill-opacity="1"><g transform="translate(144.475243, 253.471393)"><g><path d="M 2.578125 -5.59375 L 3.703125 -5.59375 L 6.078125 0 L 4.796875 0 L 4.296875 -1.25 L 1.9375 -1.25 L 1.4375 0 L 0.1875 0 Z M 3.859375 -2.328125 L 3.125 -4.125 L 2.375 -2.328125 Z M 3.859375 -2.328125 "/></g></g></g><g fill="#000000" fill-opacity="1"><g transform="translate(150.904934, 253.471393)"><g><path d="M 0.671875 -5.5625 L 1.796875 -5.5625 L 4.390625 -2.140625 L 4.390625 -5.5625 L 5.609375 -5.5625 L 5.609375 0 L 4.5625 0 L 1.875 -3.53125 L 1.875 0 L 0.671875 0 Z M 0.671875 -5.5625 "/></g></g></g><g fill="#000000" fill-opacity="1"><g transform="translate(157.334625, 253.471393)"><g/></g></g><g fill="#000000" fill-opacity="1"><g transform="translate(159.874762, 253.471393)"><g><path d="M 2.234375 -2.1875 L 0.09375 -5.5625 L 1.53125 -5.5625 L 2.84375 -3.328125 L 4.203125 -5.5625 L 5.59375 -5.5625 L 3.453125 -2.21875 L 3.453125 0 L 2.234375 0 Z M 2.234375 -2.1875 "/></g></g></g><g fill="#000000" fill-opacity="1"><g transform="translate(165.71705, 253.471393)"><g><path d="M 3.359375 0.09375 C 2.929688 0.09375 2.535156 0.0195312 2.171875 -0.125 C 1.816406 -0.28125 1.507812 -0.484375 1.25 -0.734375 C 0.988281 -0.992188 0.785156 -1.296875 0.640625 -1.640625 C 0.492188 -1.992188 0.421875 -2.367188 0.421875 -2.765625 L 0.421875 -2.78125 C 0.421875 -3.175781 0.492188 -3.546875 0.640625 -3.890625 C 0.785156 -4.234375 0.988281 -4.535156 1.25 -4.796875 C 1.519531 -5.066406 1.832031 -5.273438 2.1875 -5.421875 C 2.550781 -5.578125 2.945312 -5.65625 3.375 -5.65625 C 3.8125 -5.65625 4.207031 -5.578125 4.5625 -5.421875 C 4.925781 -5.273438 5.238281 -5.070312 5.5 -4.8125 C 5.757812 -4.550781 5.960938 -4.25 6.109375 -3.90625 C 6.253906 -3.5625 6.328125 -3.191406 6.328125 -2.796875 L 6.328125 -2.78125 C 6.328125 -2.382812 6.25 -2.007812 6.09375 -1.65625 C 5.945312 -1.3125 5.742188 -1.007812 5.484375 -0.75 C 5.222656 -0.488281 4.910156 -0.28125 4.546875 -0.125 C 4.191406 0.0195312 3.796875 0.09375 3.359375 0.09375 Z M 3.375 -1.03125 C 3.625 -1.03125 3.847656 -1.070312 4.046875 -1.15625 C 4.253906 -1.25 4.429688 -1.375 4.578125 -1.53125 C 4.722656 -1.695312 4.835938 -1.882812 4.921875 -2.09375 C 5.003906 -2.300781 5.046875 -2.523438 5.046875 -2.765625 L 5.046875 -2.78125 C 5.046875 -3.019531 5.003906 -3.242188 4.921875 -3.453125 C 4.835938 -3.660156 4.71875 -3.84375 4.5625 -4 C 4.414062 -4.164062 4.238281 -4.296875 4.03125 -4.390625 C 3.832031 -4.484375 3.609375 -4.53125 3.359375 -4.53125 C 3.117188 -4.53125 2.894531 -4.484375 2.6875 -4.390625 C 2.476562 -4.296875 2.300781 -4.171875 2.15625 -4.015625 C 2.007812 -3.859375 1.894531 -3.675781 1.8125 -3.46875 C 1.738281 -3.257812 1.703125 -3.035156 1.703125 -2.796875 L 1.703125 -2.78125 C 1.703125 -2.539062 1.738281 -2.3125 1.8125 -2.09375 C 1.894531 -1.882812 2.007812 -1.703125 2.15625 -1.546875 C 2.3125 -1.390625 2.492188 -1.265625 2.703125 -1.171875 C 2.910156 -1.078125 3.132812 -1.03125 3.375 -1.03125 Z M 3.375 -1.03125 "/></g></g></g><g fill="#000000" fill-opacity="1"><g transform="translate(172.623009, 253.471393)"><g><path d="M 2.984375 0.09375 C 2.234375 0.09375 1.644531 -0.113281 1.21875 -0.53125 C 0.789062 -0.945312 0.578125 -1.5625 0.578125 -2.375 L 0.578125 -5.5625 L 1.796875 -5.5625 L 1.796875 -2.40625 C 1.796875 -1.957031 1.898438 -1.617188 2.109375 -1.390625 C 2.328125 -1.160156 2.625 -1.046875 3 -1.046875 C 3.375 -1.046875 3.664062 -1.15625 3.875 -1.375 C 4.09375 -1.59375 4.203125 -1.925781 4.203125 -2.375 L 4.203125 -5.5625 L 5.421875 -5.5625 L 5.421875 -2.421875 C 5.421875 -1.992188 5.363281 -1.625 5.25 -1.3125 C 5.132812 -1 4.96875 -0.738281 4.75 -0.53125 C 4.539062 -0.320312 4.285156 -0.164062 3.984375 -0.0625 C 3.691406 0.0390625 3.359375 0.09375 2.984375 0.09375 Z M 2.984375 0.09375 "/></g></g></g><g fill="#000000" fill-opacity="1"><g transform="translate(178.782813, 253.471393)"><g><path d="M 0.671875 -5.5625 L 3.203125 -5.5625 C 3.910156 -5.5625 4.453125 -5.375 4.828125 -5 C 5.140625 -4.675781 5.296875 -4.25 5.296875 -3.71875 L 5.296875 -3.703125 C 5.296875 -3.253906 5.1875 -2.890625 4.96875 -2.609375 C 4.75 -2.328125 4.460938 -2.117188 4.109375 -1.984375 L 5.46875 0 L 4.046875 0 L 2.84375 -1.78125 L 1.890625 -1.78125 L 1.890625 0 L 0.671875 0 Z M 3.125 -2.859375 C 3.425781 -2.859375 3.65625 -2.925781 3.8125 -3.0625 C 3.976562 -3.207031 4.0625 -3.398438 4.0625 -3.640625 L 4.0625 -3.65625 C 4.0625 -3.925781 3.976562 -4.125 3.8125 -4.25 C 3.644531 -4.382812 3.410156 -4.453125 3.109375 -4.453125 L 1.890625 -4.453125 L 1.890625 -2.859375 Z M 3.125 -2.859375 "/></g></g></g><g fill="#000000" fill-opacity="1"><g transform="translate(184.680666, 253.471393)"><g/></g></g><g fill="#000000" fill-opacity="1"><g transform="translate(187.220801, 253.471393)"><g><path d="M 0.234375 -5.5625 L 1.546875 -5.5625 L 2.703125 -1.796875 L 3.9375 -5.578125 L 5 -5.578125 L 6.234375 -1.796875 L 7.390625 -5.5625 L 8.671875 -5.5625 L 6.765625 0.046875 L 5.703125 0.046875 L 4.453125 -3.59375 L 3.203125 0.046875 L 2.140625 0.046875 Z M 0.234375 -5.5625 "/></g></g></g><g fill="#000000" fill-opacity="1"><g transform="translate(196.285863, 253.471393)"><g><path d="M 0.671875 -5.5625 L 1.890625 -5.5625 L 1.890625 -3.359375 L 4.140625 -3.359375 L 4.140625 -5.5625 L 5.359375 -5.5625 L 5.359375 0 L 4.140625 0 L 4.140625 -2.234375 L 1.890625 -2.234375 L 1.890625 0 L 0.671875 0 Z M 0.671875 -5.5625 "/></g></g></g><g fill="#000000" fill-opacity="1"><g transform="translate(202.477415, 253.471393)"><g><path d="M 3.359375 0.09375 C 2.929688 0.09375 2.535156 0.0195312 2.171875 -0.125 C 1.816406 -0.28125 1.507812 -0.484375 1.25 -0.734375 C 0.988281 -0.992188 0.785156 -1.296875 0.640625 -1.640625 C 0.492188 -1.992188 0.421875 -2.367188 0.421875 -2.765625 L 0.421875 -2.78125 C 0.421875 -3.175781 0.492188 -3.546875 0.640625 -3.890625 C 0.785156 -4.234375 0.988281 -4.535156 1.25 -4.796875 C 1.519531 -5.066406 1.832031 -5.273438 2.1875 -5.421875 C 2.550781 -5.578125 2.945312 -5.65625 3.375 -5.65625 C 3.8125 -5.65625 4.207031 -5.578125 4.5625 -5.421875 C 4.925781 -5.273438 5.238281 -5.070312 5.5 -4.8125 C 5.757812 -4.550781 5.960938 -4.25 6.109375 -3.90625 C 6.253906 -3.5625 6.328125 -3.191406 6.328125 -2.796875 L 6.328125 -2.78125 C 6.328125 -2.382812 6.25 -2.007812 6.09375 -1.65625 C 5.945312 -1.3125 5.742188 -1.007812 5.484375 -0.75 C 5.222656 -0.488281 4.910156 -0.28125 4.546875 -0.125 C 4.191406 0.0195312 3.796875 0.09375 3.359375 0.09375 Z M 3.375 -1.03125 C 3.625 -1.03125 3.847656 -1.070312 4.046875 -1.15625 C 4.253906 -1.25 4.429688 -1.375 4.578125 -1.53125 C 4.722656 -1.695312 4.835938 -1.882812 4.921875 -2.09375 C 5.003906 -2.300781 5.046875 -2.523438 5.046875 -2.765625 L 5.046875 -2.78125 C 5.046875 -3.019531 5.003906 -3.242188 4.921875 -3.453125 C 4.835938 -3.660156 4.71875 -3.84375 4.5625 -4 C 4.414062 -4.164062 4.238281 -4.296875 4.03125 -4.390625 C 3.832031 -4.484375 3.609375 -4.53125 3.359375 -4.53125 C 3.117188 -4.53125 2.894531 -4.484375 2.6875 -4.390625 C 2.476562 -4.296875 2.300781 -4.171875 2.15625 -4.015625 C 2.007812 -3.859375 1.894531 -3.675781 1.8125 -3.46875 C 1.738281 -3.257812 1.703125 -3.035156 1.703125 -2.796875 L 1.703125 -2.78125 C 1.703125 -2.539062 1.738281 -2.3125 1.8125 -2.09375 C 1.894531 -1.882812 2.007812 -1.703125 2.15625 -1.546875 C 2.3125 -1.390625 2.492188 -1.265625 2.703125 -1.171875 C 2.910156 -1.078125 3.132812 -1.03125 3.375 -1.03125 Z M 3.375 -1.03125 "/></g></g></g><g fill="#000000" fill-opacity="1"><g transform="translate(209.383377, 253.471393)"><g><path d="M 0.671875 -5.5625 L 1.890625 -5.5625 L 1.890625 -1.109375 L 4.65625 -1.109375 L 4.65625 0 L 0.671875 0 Z M 0.671875 -5.5625 "/></g></g></g><g fill="#000000" fill-opacity="1"><g transform="translate(214.455691, 253.471393)"><g><path d="M 0.671875 -5.5625 L 4.859375 -5.5625 L 4.859375 -4.46875 L 1.875 -4.46875 L 1.875 -3.34375 L 4.5 -3.34375 L 4.5 -2.25 L 1.875 -2.25 L 1.875 -1.09375 L 4.890625 -1.09375 L 4.890625 0 L 0.671875 0 Z M 0.671875 -5.5625 "/></g></g></g><g fill="#000000" fill-opacity="1"><g transform="translate(219.932838, 253.471393)"><g/></g></g><g fill="#000000" fill-opacity="1"><g transform="translate(222.472973, 253.471393)"><g><path d="M 0.671875 -5.5625 L 1.890625 -5.5625 L 1.890625 -1.109375 L 4.65625 -1.109375 L 4.65625 0 L 0.671875 0 Z M 0.671875 -5.5625 "/></g></g></g><g fill="#000000" fill-opacity="1"><g transform="translate(227.545288, 253.471393)"><g><path d="M 0.71875 -5.5625 L 1.9375 -5.5625 L 1.9375 0 L 0.71875 0 Z M 0.71875 -5.5625 "/></g></g></g><g fill="#000000" fill-opacity="1"><g transform="translate(230.371191, 253.471393)"><g><path d="M 0.671875 -5.5625 L 4.890625 -5.5625 L 4.890625 -4.4375 L 1.890625 -4.4375 L 1.890625 -3.265625 L 4.546875 -3.265625 L 4.546875 -2.15625 L 1.890625 -2.15625 L 1.890625 0 L 0.671875 0 Z M 0.671875 -5.5625 "/></g></g></g><g fill="#000000" fill-opacity="1"><g transform="translate(235.737211, 253.471393)"><g><path d="M 0.671875 -5.5625 L 4.859375 -5.5625 L 4.859375 -4.46875 L 1.875 -4.46875 L 1.875 -3.34375 L 4.5 -3.34375 L 4.5 -2.25 L 1.875 -2.25 L 1.875 -1.09375 L 4.890625 -1.09375 L 4.890625 0 L 0.671875 0 Z M 0.671875 -5.5625 "/></g></g></g></svg>